<svg xmlns="http://www.w3.org/2000/svg" xml:space="preserve" width="1920px" height="1080px" version="1.1" style="shape-rendering:geometricPrecision; text-rendering:geometricPrecision; image-rendering:optimizeQuality; fill-rule:evenodd; clip-rule:evenodd"
viewBox="0 0 1894 1065"
 xmlns:xlink="http://www.w3.org/1999/xlink">
 <defs>
  <style type="text/css">
   <![CDATA[
    .fil0 {fill:black}
    .fil1 {fill:white;fill-rule:nonzero}
   ]]>
  </style>
 </defs>
 <g id="Layer_x0020_1">
  <metadata id="CorelCorpID_0Corel-Layer"/>
  <rect class="fil0" width="1894" height="1065"/>
  <path class="fil1" d="M523 411c-12,0 -23,3 -33,9 -9,5 -18,14 -24,24 -7,11 -12,24 -15,39 -4,15 -5,32 -5,51 0,25 2,47 8,65 6,18 15,32 26,41 12,10 27,14 45,14 15,0 29,-1 43,-5 14,-3 28,-8 44,-14l0 64c-15,7 -30,11 -45,14 -16,3 -32,5 -50,5 -36,0 -65,-8 -88,-23 -23,-15 -40,-37 -51,-65 -11,-27 -16,-60 -16,-97 0,-27 3,-52 10,-75 7,-22 18,-42 32,-58 13,-17 30,-30 50,-39 20,-9 43,-13 69,-13 17,0 35,2 53,6 19,5 35,11 49,19l-26 62c-12,-7 -25,-12 -37,-17 -13,-5 -26,-7 -39,-7zm295 0c-12,0 -23,3 -33,9 -9,5 -17,14 -24,24 -7,11 -12,24 -15,39 -4,15 -5,32 -5,51 0,25 3,47 8,65 6,18 15,32 27,41 11,10 26,14 44,14 15,0 29,-1 43,-5 14,-3 29,-8 44,-14l0 64c-15,7 -30,11 -45,14 -15,3 -32,5 -50,5 -36,0 -65,-8 -88,-23 -23,-15 -40,-37 -51,-65 -11,-27 -16,-60 -16,-97 0,-27 3,-52 11,-75 7,-22 17,-42 31,-58 14,-17 31,-30 51,-39 20,-9 43,-13 68,-13 17,0 35,2 54,6 18,5 35,11 48,19l-25 62c-13,-7 -25,-12 -38,-17 -13,-5 -26,-7 -39,-7zm298 302l-82 0 0 -297 -87 0 0 -63 256 0 0 63 -87 0 0 297zm416 -360l-113 360 -93 0 -113 -360 88 0 55 214c1,4 3,11 5,20 3,10 5,21 7,32 3,11 4,20 5,27 1,-7 3,-16 5,-27 2,-11 4,-21 6,-31 2,-10 4,-17 5,-21l56 -214 87 0z"/>
 </g>
</svg>
